Patient4_TMGait_0pt5_02_left_20_GRF.mot
version=1
nRows=65
nColumns=19
inDegrees=no
endheader
time	F1x	F1y	F1z	M1x	M1y	M1z	F2x	F2y	F2z	M2x	M2y	M2z	EC1x	EC1y	EC1z	EC2x	EC2y	EC2z
25.34	-4.2041	16.0367	-1.6265	-3.8009	-1.6879	14.412	-9.0792	729.0265	-70.0354	275.3614	58.8367	588.5037	-0.0592	0.0182	-0.0073	-0.0462	0.0165	0.9585
25.3524	-2.5528	11.6046	-1.0007	-2.858	-1.2304	10.3435	-6.6051	731.6347	-68.4997	274.914	56.5719	589.3458	-0.0592	0.0182	-0.0073	-0.0462	0.0165	0.9585
25.3649	-1.2342	7.8882	-0.49899	-2.0689	-0.80258	6.9874	-4.1439	734.0947	-66.998	274.5646	54.2909	589.6742	-0.0592	0.0182	-0.0073	-0.0462	0.0165	0.9585
25.3773	-0.29728	5.1114	-0.13368	-1.4816	-0.45487	4.5186	-1.8589	736.5757	-65.628	274.452	52.1405	589.6887	-0.0592	0.0182	-0.0073	-0.0462	0.0165	0.9585
25.3897	0.31109	3.2496	0.1052	-1.0907	-0.1966	2.8783	0.14081	739.3842	-64.4388	274.6991	50.2146	589.7156	-0.0592	0.0182	-0.0073	-0.0462	0.0165	0.9585
25.4021	0.63496	2.162	0.2453	-0.8651	-0.032631	1.9476	1.7969	742.8239	-63.4445	275.3909	48.5596	590.0655	-0.0592	0.0182	-0.0073	-0.0462	0.0165	0.9585
25.4146	0.76392	1.6296	0.30956	-0.75596	0.060483	1.5084	3.081	747.1087	-62.6358	276.5662	47.1905	590.9696	-0.0592	0.0182	-0.0073	-0.0462	0.0165	0.9585
25.427	0.73567	1.4515	0.32391	-0.71515	0.092738	1.3949	4.0229	752.3136	-62.0057	278.2079	46.1046	592.5358	-0.0592	0.0182	-0.0073	-0.0462	0.0165	0.9585
25.4394	0.62315	1.4066	0.30428	-0.68786	0.091533	1.3833	4.6587	758.3432	-61.535	280.2412	45.2774	594.7192	-0.0592	0.0182	-0.0073	-0.0462	0.0165	0.9585
25.4519	0.43732	1.3036	0.26665	-0.62106	0.065761	1.3146	5.0356	764.9099	-61.1928	282.5289	44.6671	597.3001	-0.0592	0.0182	-0.0073	-0.0462	0.0165	0.9585
25.4643	0.22427	0.94565	0.21823	-0.45986	0.030481	0.99773	5.2304	771.584	-60.922	284.8888	44.2009	599.9449	-0.0592	0.0182	-0.0073	-0.0462	0.0165	0.9585
25.4767	-0.0059475	0.16322	0.16186	-0.15414	-0.01003	0.3021	5.3182	777.8161	-60.6665	287.1071	43.8043	602.2061	-0.0592	0.0182	-0.0073	-0.0462	0.0165	0.9585
25.4891	-0.21025	-1.1636	0.088856	0.33397	-0.031699	-0.87468	5.3849	783.0367	-60.365	288.9689	43.395	603.6216	-0.0592	0.0182	-0.0073	-0.0462	0.0165	0.9585
25.5016	-0.34077	-3.0772	-0.005526	1.0216	-0.010858	-2.5695	5.5299	786.7038	-59.9826	290.2727	42.905	603.7635	-0.0592	0.0182	-0.0073	-0.0462	0.0165	0.9585
25.514	-0.31306	-5.5084	-0.13443	1.885	0.097911	-4.7327	5.8462	788.2929	-59.5245	290.8269	42.2959	602.2075	-0.0592	0.0182	-0.0073	-0.0462	0.0165	0.9585
25.5264	-0.0034442	-8.1981	-0.29054	2.8345	0.33501	-7.1441	6.4088	787.4084	-59.0258	290.4829	41.5624	598.6541	-0.0592	0.0182	-0.0073	-0.0462	0.0165	0.9585
25.5389	0.72987	-10.6145	-0.47161	3.6814	0.75221	-9.3348	7.2873	783.7895	-58.5474	289.1423	40.7264	592.9124	-0.0592	0.0182	-0.0073	-0.0462	0.0165	0.9585
25.5513	2.0588	-11.8708	-0.64182	4.1061	1.3781	-10.5312	8.5013	777.3395	-58.1262	286.7663	39.8066	584.9325	-0.0592	0.0182	-0.0073	-0.0462	0.0165	0.9585
25.5637	4.1242	-10.6252	-0.75248	3.6243	2.2199	-9.5273	10.0614	768.0775	-57.7704	283.362	38.8107	574.7504	-0.0592	0.0182	-0.0073	-0.0462	0.0165	0.9585
25.5761	7.024	-5.0642	-0.70899	1.5812	3.2276	-4.7249	11.9223	756.0901	-57.4246	278.9632	37.7142	562.4808	-0.0592	0.0182	-0.0073	-0.0462	0.0165	0.9585
25.5886	10.6757	7.0907	-0.39698	-2.84	4.271	5.905	14.0205	741.4434	-57.0013	273.5983	36.4812	548.2392	-0.0592	0.0182	-0.0073	-0.0462	0.0165	0.9585
25.601	14.7703	28.3066	0.35244	-10.5226	5.0833	24.5519	16.2487	724.0842	-56.3759	267.2528	35.0617	532.0767	-0.0592	0.0182	-0.0073	-0.0462	0.0165	0.9585
25.6134	18.5963	60.8156	1.706	-22.2561	5.2571	53.2184	18.4757	703.7455	-55.4199	259.829	33.4153	513.9022	-0.0592	0.0182	-0.0073	-0.0462	0.0165	0.9585
25.6259	20.9601	105.8337	3.8562	-38.4584	4.1905	93.0082	20.5318	679.9158	-53.9917	251.1358	31.5092	493.4653	-0.0592	0.0182	-0.0073	-0.0462	0.0165	0.9585
25.6383	20.2871	162.6383	6.9571	-58.8445	1.1903	143.3485	22.2317	651.9085	-51.969	240.915	29.3369	470.3976	-0.0592	0.0182	-0.0073	-0.0462	0.0165	0.9585
25.6507	15.5311	227.8909	11.1335	-82.1789	-4.2068	201.3404	23.4192	619.0696	-49.2436	228.9216	26.8936	444.339	-0.0592	0.0182	-0.0073	-0.0462	0.0165	0.9585
25.6631	7.4839	295.5004	16.5028	-106.2359	-11.7985	261.5329	23.9632	581.066	-45.7988	215.031	24.2253	415.136	-0.0592	0.0182	-0.0073	-0.0462	0.0165	0.9585
25.6756	-1.806	358.5089	23.1064	-128.5202	-20.8904	317.5048	23.855	538.1238	-41.7548	199.326	21.4263	382.9622	-0.0592	0.0182	-0.0073	-0.0462	0.0165	0.9585
25.688	-10.6654	413.0868	30.2499	-147.6942	-30.2464	365.5793	23.1394	491.1967	-37.3867	182.1447	18.661	348.4734	-0.0592	0.0182	-0.0073	-0.0462	0.0165	0.9585
25.7004	-17.9553	458.7096	37.106	-163.6376	-38.7141	405.1337	21.8979	441.6664	-33.0869	163.9781	16.1493	312.573	-0.0592	0.0182	-0.0073	-0.0462	0.0165	0.9585
25.7129	-23.0776	496.4456	43.0456	-176.7968	-45.5317	437.0929	20.1789	391.0192	-29.2059	145.3518	14.0998	276.2601	-0.0592	0.0182	-0.0073	-0.0462	0.0165	0.9585
25.7253	-25.9512	527.7235	47.6544	-187.7261	-50.3247	462.7799	18.0236	340.6509	-25.8754	126.7714	12.5751	240.4452	-0.0592	0.0182	-0.0073	-0.0462	0.0165	0.9585
25.7377	-26.7917	553.8222	50.8166	-196.9066	-53.1018	483.3916	15.4509	291.9091	-23.0588	108.7324	11.538	206.0277	-0.0592	0.0182	-0.0073	-0.0462	0.0165	0.9585
25.7501	-26.0014	576.0421	52.6239	-204.7984	-54.1135	500.1511	12.5847	246.0826	-20.6162	91.7167	10.846	173.8421	-0.0592	0.0182	-0.0073	-0.0462	0.0165	0.9585
25.7626	-24.0123	595.6581	53.3945	-211.8299	-53.8226	514.2948	9.5792	204.3601	-18.4348	76.1738	10.3619	144.6563	-0.0592	0.0182	-0.0073	-0.0462	0.0165	0.9585
25.775	-21.2835	613.7925	53.4891	-218.3655	-52.7148	526.9208	6.6613	167.76	-16.4444	62.4921	9.9545	119.101	-0.0592	0.0182	-0.0073	-0.0462	0.0165	0.9585
25.7874	-18.2429	631.1836	53.3685	-224.6314	-51.3382	538.7467	4.0255	136.9424	-14.667	50.9258	9.5755	97.5875	-0.0592	0.0182	-0.0073	-0.0462	0.0165	0.9585
25.7999	-15.2691	648.0651	53.4257	-230.6838	-50.1467	550.0326	1.7978	112.0163	-13.123	41.5274	9.1978	80.1589	-0.0592	0.0182	-0.0073	-0.0462	0.0165	0.9585
25.8123	-12.5862	664.4138	53.9594	-236.4974	-49.4618	560.7684	0.0099306	92.5139	-11.821	34.1378	8.8249	66.4713	-0.0592	0.0182	-0.0073	-0.0462	0.0165	0.9585
25.8247	-10.2443	680.2044	55.0235	-242.0646	-49.3311	570.8962	-1.4167	77.5117	-10.7156	28.4303	8.4593	55.8847	-0.0592	0.0182	-0.0073	-0.0462	0.0165	0.9585
25.8371	-8.131	695.421	56.512	-247.3959	-49.6181	580.3562	-2.5836	65.8874	-9.7454	24.0031	8.1047	47.6271	-0.0592	0.0182	-0.0073	-0.0462	0.0165	0.9585
25.8496	-6.0902	709.9509	58.2046	-252.4744	-50.0671	589.0168	-3.5938	56.5612	-8.8296	20.4631	7.7434	40.9631	-0.0592	0.0182	-0.0073	-0.0462	0.0165	0.9585
25.862	-3.9853	723.5001	59.9421	-257.2134	-50.4824	596.6059	-4.4821	48.5943	-7.9101	17.4688	7.3543	35.238	-0.0592	0.0182	-0.0073	-0.0462	0.0165	0.9585
25.8744	-1.7015	735.6664	61.6352	-261.4752	-50.7338	602.7964	-5.2478	41.2944	-6.937	14.7646	6.8992	29.9848	-0.0592	0.0182	-0.0073	-0.0462	0.0165	0.9585
25.8869	0.8523	746.0277	63.2747	-265.103	-50.7805	607.2899	-5.792	34.2325	-5.8954	12.191	6.3314	24.8993	-0.0592	0.0182	-0.0073	-0.0462	0.0165	0.9585
25.8993	3.7215	754.1994	64.8475	-267.9524	-50.5991	609.8217	-5.9869	27.2882	-4.7937	9.6952	5.6097	19.9249	-0.0592	0.0182	-0.0073	-0.0462	0.0165	0.9585
25.9117	6.9145	759.9314	66.3339	-269.9228	-50.1833	610.2539	-5.6907	20.5982	-3.6624	7.3166	4.702	15.1566	-0.0592	0.0182	-0.0073	-0.0462	0.0165	0.9585
25.9241	10.4175	763.1085	67.695	-270.9633	-49.5198	608.5717	-4.8716	14.5306	-2.5767	5.174	3.6483	10.8586	-0.0592	0.0182	-0.0073	-0.0462	0.0165	0.9585
25.9366	14.1748	763.746	68.9025	-271.0693	-48.6197	604.862	-3.7701	9.5316	-1.6294	3.4165	2.5917	7.3327	-0.0592	0.0182	-0.0073	-0.0462	0.0165	0.9585
25.949	18.0911	762.0025	69.9503	-270.2854	-47.5256	599.3335	-2.6869	5.8239	-0.91286	2.1157	1.7055	4.7513	-0.0592	0.0182	-0.0073	-0.0462	0.0165	0.9585
25.9614	22.0773	758.2702	70.834	-268.7402	-46.2822	592.3801	-1.7647	3.3504	-0.41131	1.25	1.0289	3.0737	-0.0592	0.0182	-0.0073	-0.0462	0.0165	0.9585
25.9739	26.016	753.1936	71.545	-266.6525	-44.9353	584.5873	-1.0639	1.9022	-0.10549	0.74489	0.5721	2.1347	-0.0592	0.0182	-0.0073	-0.0462	0.0165	0.9585
25.9863	29.7702	747.4864	72.0987	-264.2664	-43.5573	576.5826	-0.58601	1.2306	0.061348	0.51255	0.29158	1.7422	-0.0592	0.0182	-0.0073	-0.0462	0.0165	0.9585
25.9987	33.184	741.7979	72.5386	-261.8027	-42.2464	568.9501	-0.2939	1.088	0.12558	0.46722	0.1495	1.7014	-0.0592	0.0182	-0.0073	-0.0462	0.0165	0.9585
26.0111	36.1204	736.6771	72.898	-259.451	-41.0809	562.1597	-0.16698	1.2784	0.12673	0.54028	0.10668	1.89	-0.0592	0.0182	-0.0073	-0.0462	0.0165	0.9585
26.0236	38.4562	732.547	73.2037	-257.3617	-40.1241	556.5609	-0.13398	1.6279	0.088965	0.67059	0.12521	2.1798	-0.0592	0.0182	-0.0073	-0.0462	0.0165	0.9585
26.036	40.1397	729.6815	73.4629	-255.6363	-39.3964	552.3571	-0.17734	2.0163	0.031703	0.81241	0.18043	2.4981	-0.0592	0.0182	-0.0073	-0.0462	0.0165	0.9585
26.0484	41.1531	728.1989	73.69	-254.3239	-38.9114	549.6088	-0.2482	2.3277	-0.035863	0.92388	0.25344	2.7421	-0.0592	0.0182	-0.0073	-0.0462	0.0165	0.9585
26.0609	41.5069	728.082	73.8989	-253.4323	-38.6689	548.2472	-0.34721	2.4818	-0.10784	0.9731	0.33931	2.8561	-0.0592	0.0182	-0.0073	-0.0462	0.0165	0.9585
26.0733	41.2698	729.264	74.1164	-252.9558	-38.6646	548.1483	-0.43964	2.3603	-0.17585	0.91693	0.42179	2.7154	-0.0592	0.0182	-0.0073	-0.0462	0.0165	0.9585
26.0857	40.5498	731.7136	74.349	-252.9004	-38.8628	549.1968	-0.51978	1.8609	-0.23336	0.71478	0.49325	2.2254	-0.0592	0.0182	-0.0073	-0.0462	0.0165	0.9585
26.0981	39.5168	735.4238	74.6077	-253.2812	-39.2092	551.2591	-0.55989	0.85962	-0.26998	0.31915	0.53329	1.2521	-0.0592	0.0182	-0.0073	-0.0462	0.0165	0.9585
26.1106	38.3851	740.406	74.9004	-254.1174	-39.6238	554.2337	-0.52902	-0.72785	-0.27554	-0.30479	0.51961	-0.28556	-0.0592	0.0182	-0.0073	-0.0462	0.0165	0.9585
26.123	37.4207	746.5955	75.2595	-255.3997	-40.0314	557.9544	-0.39192	-2.9429	-0.23439	-1.1715	0.42157	-2.436	-0.0592	0.0182	-0.0073	-0.0462	0.0165	0.9585
26.1354	36.8584	753.7647	75.7128	-257.0556	-40.3627	562.165	-0.10089	-5.7071	-0.13065	-2.2476	0.20206	-5.1355	-0.0592	0.0182	-0.0073	-0.0462	0.0165	0.9585
